<svg width="28" height="28" viewBox="0 0 28 28" fill="none" xmlns="http://www.w3.org/2000/svg">
<path d="M16.9991 17.5044L18.0001 19.6569C18.0001 19.6569 22.4999 20.6124 22.4999 22.885C22.4999 24.4997 20.498 24.4997 20.498 24.4997H15.1663L12.5413 23.0414" stroke="#FE763E" stroke-width="1.7" stroke-linecap="round" stroke-linejoin="round"/>
<path d="M11.0012 17.5044L10.0013 19.6569C10.0013 19.6569 5.50038 20.6124 5.50038 22.885C5.50038 24.4997 7.50236 24.4997 7.50236 24.4997H9.91735L12.5423 23.0414L15.7506 20.9997" stroke="#FE763E" stroke-width="1.7" stroke-linecap="round" stroke-linejoin="round"/>
<path d="M3.49987 18.5802C3.49987 18.5802 6.00002 18.0424 7.50035 17.5046C8.9995 9.97029 13.4981 10.5081 13.9998 10.5081C14.5015 10.5081 19.0001 9.97029 20.4993 17.5046C21.9996 18.0412 24.4997 18.5802 24.4997 18.5802M13.9998 8.16663C14.6186 8.16663 15.2121 7.92081 15.6497 7.48322C16.0873 7.04564 16.3331 6.45215 16.3331 5.83332C16.3331 5.21449 16.0873 4.621 15.6497 4.18342C15.2121 3.74583 14.6186 3.5 13.9998 3.5C13.381 3.5 12.7875 3.74583 12.3499 4.18342C11.9123 4.621 11.6665 5.21449 11.6665 5.83332C11.6665 6.45215 11.9123 7.04564 12.3499 7.48322C12.7875 7.92081 13.381 8.16663 13.9998 8.16663Z" stroke="#FE763E" stroke-width="1.7" stroke-linecap="round" stroke-linejoin="round"/>
</svg>
