<svg width="315" height="316" viewBox="0 0 315 316" fill="none" xmlns="http://www.w3.org/2000/svg">
<g clip-path="url(#clip0_1_92)">
<path d="M78.2962 100.549C83.3554 101.693 88.0054 103.64 92.1237 106.199C123.261 119.648 154.059 153.898 157.479 157.77C157.516 157.738 157.536 157.722 157.536 157.722C157.538 157.725 157.548 157.749 157.566 157.791C162.332 155.762 204.863 138.107 238.751 139.365C243.57 138.826 248.605 139.071 253.664 140.215C276.129 145.296 290.558 166.132 285.894 186.755C281.23 207.377 259.238 219.977 236.774 214.897C233.71 214.204 230.796 213.217 228.059 211.978C196.696 200.94 164.13 165.796 158.113 159.091C161.384 166.943 177.346 207.055 176.153 239.334C176.693 244.156 176.449 249.196 175.304 254.259C170.224 276.722 149.387 291.151 128.765 286.488C108.141 281.824 95.5419 259.833 100.623 237.368C101.314 234.311 102.299 231.404 103.533 228.673C114.569 197.291 149.748 164.698 156.435 158.701C148.142 162.155 103.601 179.88 70.5285 176.346C67.5244 176.286 64.4698 175.924 61.4058 175.231C38.9414 170.15 24.5123 149.312 29.1763 128.69C33.8404 108.068 55.8328 95.4686 78.2962 100.549ZM186.307 28.9549C206.929 33.619 219.53 55.6107 214.449 78.075C213.758 81.1312 212.773 84.0389 211.539 86.7701C199.34 121.457 157.645 157.625 157.535 157.721C157.485 157.608 137.592 112.012 138.919 76.1084C138.378 71.2868 138.622 66.2477 139.767 61.1846C144.848 38.7202 165.685 24.2909 186.307 28.9549Z" fill="white" fill-opacity="0.4"/>
</g>
<defs>
<clipPath id="clip0_1_92">
<rect width="263" height="264" fill="white" transform="translate(58.2816) scale(1.00077) rotate(12.7439)"/>
</clipPath>
</defs>
</svg>
