<svg width="73" height="73" viewBox="0 0 73 73" fill="none" xmlns="http://www.w3.org/2000/svg">
<rect width="73" height="73" rx="36.275" fill="#FBDBFC"/>
<path d="M39.4268 39.9205L40.4052 42.0245C40.4052 42.0245 44.8036 42.9584 44.8036 45.1798C44.8036 46.7581 42.8468 46.7581 42.8468 46.7581H37.6353L35.0695 45.3327" stroke="#FE763E" stroke-width="1.7" stroke-linecap="round" stroke-linejoin="round"/>
<path d="M33.564 39.9205L32.5867 42.0245C32.5867 42.0245 28.1872 42.9584 28.1872 45.1798C28.1872 46.7581 30.1441 46.7581 30.1441 46.7581H32.5046L35.0704 45.3327L38.2064 43.337" stroke="#FE763E" stroke-width="1.7" stroke-linecap="round" stroke-linejoin="round"/>
<path d="M26.2317 40.9721C26.2317 40.9721 28.6755 40.4464 30.142 39.9207C31.6074 32.5562 36.0046 33.0819 36.495 33.0819C36.9853 33.0819 41.3825 32.5562 42.8479 39.9207C44.3144 40.4452 46.7582 40.9721 46.7582 40.9721M36.495 30.7932C37.0998 30.7932 37.6799 30.5529 38.1077 30.1252C38.5354 29.6975 38.7757 29.1174 38.7757 28.5125C38.7757 27.9076 38.5354 27.3275 38.1077 26.8998C37.6799 26.472 37.0998 26.2318 36.495 26.2318C35.8901 26.2318 35.31 26.472 34.8823 26.8998C34.4545 27.3275 34.2142 27.9076 34.2142 28.5125C34.2142 29.1174 34.4545 29.6975 34.8823 30.1252C35.31 30.5529 35.8901 30.7932 36.495 30.7932Z" stroke="#FE763E" stroke-width="1.7" stroke-linecap="round" stroke-linejoin="round"/>
</svg>
