<svg width="73" height="73" viewBox="0 0 73 73" fill="none" xmlns="http://www.w3.org/2000/svg">
<rect width="73" height="73" rx="36.275" fill="#FBDBFC"/>
<path d="M39.4269 39.9205L40.4053 42.0245C40.4053 42.0245 44.8037 42.9584 44.8037 45.1798C44.8037 46.7581 42.8468 46.7581 42.8468 46.7581H37.6354L35.0696 45.3327" stroke="#FE763E" stroke-width="1.7" stroke-linecap="round" stroke-linejoin="round"/>
<path d="M33.5641 39.9205L32.5868 42.0245C32.5868 42.0245 28.1873 42.9584 28.1873 45.1798C28.1873 46.7581 30.1442 46.7581 30.1442 46.7581H32.5047L35.0705 45.3327L38.2065 43.337" stroke="#FE763E" stroke-width="1.7" stroke-linecap="round" stroke-linejoin="round"/>
<path d="M26.2318 40.9721C26.2318 40.9721 28.6755 40.4464 30.1421 39.9207C31.6074 32.5562 36.0047 33.0819 36.495 33.0819C36.9854 33.0819 41.3826 32.5562 42.848 39.9207C44.3145 40.4452 46.7583 40.9721 46.7583 40.9721M36.495 30.7932C37.0999 30.7932 37.68 30.5529 38.1077 30.1252C38.5355 29.6975 38.7757 29.1174 38.7757 28.5125C38.7757 27.9076 38.5355 27.3275 38.1077 26.8998C37.68 26.472 37.0999 26.2318 36.495 26.2318C35.8902 26.2318 35.3101 26.472 34.8823 26.8998C34.4546 27.3275 34.2143 27.9076 34.2143 28.5125C34.2143 29.1174 34.4546 29.6975 34.8823 30.1252C35.3101 30.5529 35.8902 30.7932 36.495 30.7932Z" stroke="#FE763E" stroke-width="1.7" stroke-linecap="round" stroke-linejoin="round"/>
</svg>
