<svg width="74" height="74" viewBox="0 0 74 74" fill="none" xmlns="http://www.w3.org/2000/svg">
<rect width="74" height="74" rx="36.6" fill="#FBDBFC"/>
<path d="M26.4594 37H47.9073" stroke="#FE763E" stroke-width="1.632" stroke-linecap="round" stroke-linejoin="round"/>
<path d="M45.4325 31.2256C45.4325 30.77 45.0633 30.4007 44.6076 30.4007C44.152 30.4007 43.7827 30.77 43.7827 31.2256V42.7744C43.7827 43.23 44.152 43.5994 44.6076 43.5994C45.0633 43.5994 45.4325 43.23 45.4325 42.7744V31.2256Z" stroke="#FE763E" stroke-width="1.632" stroke-linecap="round" stroke-linejoin="round"/>
<path d="M30.584 31.2256C30.584 30.77 30.2147 30.4007 29.7591 30.4007C29.3035 30.4007 28.9342 30.77 28.9342 31.2256V42.7744C28.9342 43.23 29.3035 43.5994 29.7591 43.5994C30.2147 43.5994 30.584 43.23 30.584 42.7744V31.2256Z" stroke="#FE763E" stroke-width="1.632" stroke-linecap="round" stroke-linejoin="round"/>
<path d="M26.4596 34.1129C26.4596 33.8851 26.2749 33.7004 26.0471 33.7004C25.8192 33.7004 25.6345 33.8851 25.6345 34.1129V39.888C25.6345 40.1158 25.8192 40.3005 26.0471 40.3005C26.2749 40.3005 26.4596 40.1158 26.4596 39.888V34.1129Z" stroke="#FE763E" stroke-width="1.632" stroke-linecap="round" stroke-linejoin="round"/>
<path d="M48.7323 34.1129C48.7323 33.8851 48.5477 33.7004 48.3198 33.7004C48.0919 33.7004 47.9073 33.8851 47.9073 34.1129V39.888C47.9073 40.1158 48.0919 40.3005 48.3198 40.3005C48.5477 40.3005 48.7323 40.1158 48.7323 39.888V34.1129Z" stroke="#FE763E" stroke-width="1.632" stroke-linecap="round" stroke-linejoin="round"/>
</svg>
